<svg width="378" height="372" viewBox="0 0 378 372" fill="none" xmlns="http://www.w3.org/2000/svg">
<path fill-rule="evenodd" clip-rule="evenodd" d="M61.4999 1.47989C32.5439 6.85689 10.5399 27.1079 2.80594 55.4999L0.626953 63.4999L0.907928 185.5C1.13793 285.419 1.44293 308.767 2.59393 314.5C3.36793 318.36 6.08595 325.762 8.65195 331C19.7849 353.728 43.3929 368.787 71.4999 371.089C77.5499 371.585 133.35 371.837 195.5 371.65C295.826 371.348 309.253 371.127 315.213 369.678C341.437 363.304 359.838 346.726 368.692 321.5L371.5 313.5L371.797 254L372.093 194.5L369.936 192.75C365.704 189.317 355.016 191.283 351.631 196.117C350.172 198.199 350 204.107 350 252.012C350 296.269 349.741 306.575 348.508 311.307C344.305 327.446 332.374 340.388 316.419 346.117C310.519 348.235 310.109 348.242 191 348.414C125.275 348.509 69.0249 348.238 65.9999 347.813C47.5749 345.222 30.4519 330.939 25.1509 313.74C23.3059 307.753 23.216 302.599 22.933 186.5L22.6379 65.4999L24.8039 58.9279C30.7659 40.8389 46.3959 26.9069 63.9999 23.9889C68.4159 23.2569 100.964 23.0059 165.5 23.2059C270.751 23.5319 261.766 22.8949 270.022 30.6179C274.784 35.0709 280.332 37.9999 284.008 37.9999C290.335 37.9999 297.846 30.5079 296.579 25.4599C295.801 22.3589 278.793 7.55287 272.5 4.49887C269.75 3.16387 264.575 1.60989 261 1.04389C250.759 -0.577112 70.4539 -0.182108 61.4999 1.47989ZM359.5 17.1539C358.4 17.7549 314.75 60.8909 262.5 113.013C210.25 165.135 166.547 208.066 165.382 208.416C164.217 208.765 162.192 208.633 160.882 208.122C159.572 207.611 149.904 198.89 139.397 188.742C115.798 165.948 113.355 164.5 98.4999 164.5C91.5349 164.5 86.9819 165.032 83.4999 166.254C71.7209 170.385 61.4899 182.152 58.5899 194.903C55.1579 209.992 57.5339 221.678 66.5399 234C70.4839 239.396 131.76 297.758 138.551 302.587C147.152 308.701 153.038 310.387 166 310.447C176.935 310.497 177.834 310.342 184.308 307.276C191.804 303.725 190.518 304.951 248.03 246.5C264.806 229.45 299.945 193.9 326.117 167.5C352.289 141.1 374.444 118.06 375.351 116.3C379.729 107.803 375.422 99.0409 366.827 98.9579L362.5 98.9169L269.81 191.984C207.717 254.33 175.955 285.539 173.592 286.526C169.068 288.416 162.713 288.401 156.259 286.484C151.605 285.102 148.26 282.161 118.327 253.131C80.3189 216.268 82.2109 218.256 80.4489 213.316C76.2729 201.606 82.7339 188.062 93.2489 186.485C102.787 185.055 104.315 186.09 129.588 211.087C153.356 234.596 157.725 237.931 164.816 237.978C166.639 237.99 169.006 237.532 170.075 236.96C172.661 235.576 371.154 36.4359 372.715 33.6609C374.212 30.9979 374.362 23.5439 372.97 20.9449C370.794 16.8789 363.672 14.8739 359.5 17.1539Z" fill="#426CFF"/>
</svg>
